<svg width="33" height="28" viewBox="0 0 33 28" fill="none" xmlns="http://www.w3.org/2000/svg">
<path fill-rule="evenodd" clip-rule="evenodd" d="M4.54176 8.21796C4.54176 6.27079 6.12025 4.6923 8.06741 4.6923H24.8944C26.8416 4.6923 28.42 6.27079 28.42 8.21796V19.4359C28.42 21.3831 26.8416 22.9616 24.8944 22.9616H8.06741C6.12025 22.9616 4.54176 21.3831 4.54176 19.4359V8.21796ZM8.06741 0.525635C3.81906 0.525635 0.375092 3.96961 0.375092 8.21796V19.4359C0.375092 23.6843 3.81906 27.1283 8.06741 27.1283H24.8944C29.1427 27.1283 32.5867 23.6843 32.5867 19.4359V8.21796C32.5867 3.96961 29.1427 0.525635 24.8944 0.525635H8.06741ZM14.7483 7.83376C14.1047 7.44759 13.3031 7.43748 12.65 7.80728C11.9968 8.17708 11.5931 8.86963 11.5931 9.6202V18.0337C11.5931 18.7843 11.9968 19.4768 12.65 19.8466C13.3031 20.2164 14.1047 20.2063 14.7483 19.8201L21.7595 15.6134C22.387 15.2369 22.771 14.5587 22.771 13.8269C22.771 13.0951 22.387 12.417 21.7595 12.0405L14.7483 7.83376ZM16.6384 13.8269L15.7597 14.3541V13.2998L16.6384 13.8269Z" fill="#F8F8F8"/>
</svg>
